[Header]
FileType HTR
DataType HTRS
FileVersion 1
NumSegments 64
NumFrames 4
DataFrameRate 30
EulerRotationOrder ZYX
CalibrationUnits mm
RotationUnits Degrees
GlobalAxisofGravity Y
BoneLengthAxis Y
ScaleFactor 1.0
[SegmentNames&Hierarchy]
Hips	GLOBAL
Spine	Hips
Spine1	Spine
Spine2	Spine1
Neck	Spine2
Head	Neck
LeftEye	Head
RightEye	Head
LeftShoulder	Spine2
LeftArm	LeftShoulder
LeftForeArm	LeftArm
LeftHand	LeftForeArm
LeftHandThumb1	LeftHand
LeftHandThumb2	LeftHandThumb1
LeftHandThumb3	LeftHandThumb2
LeftHandThumb4	LeftHandThumb3
LeftHandIndex1	LeftHand
LeftHandIndex2	LeftHandIndex1
LeftHandIndex3	LeftHandIndex2
LeftHandIndex4	LeftHandIndex3
LeftHandMiddle1	LeftHand
LeftHandMiddle2	LeftHandMiddle1
LeftHandMiddle3	LeftHandMiddle2
LeftHandMiddle4	LeftHandMiddle3
LeftHandRing1	LeftHand
LeftHandRing2	LeftHandRing1
LeftHandRing3	LeftHandRing2
LeftHandRing4	LeftHandRing3
LeftHandPinky1	LeftHand
LeftHandPinky2	LeftHandPinky1
LeftHandPinky3	LeftHandPinky2
LeftHandPinky4	LeftHandPinky3
RightShoulder	Spine2
RightArm	RightShoulder
RightForeArm	RightArm
RightHand	RightForeArm
RightHandPinky1	RightHand
RightHandPinky2	RightHandPinky1
RightHandPinky3	RightHandPinky2
RightHandPinky4	RightHandPinky3
RightHandRing1	RightHand
RightHandRing2	RightHandRing1
RightHandRing3	RightHandRing2
RightHandRing4	RightHandRing3
RightHandMiddle1	RightHand
RightHandMiddle2	RightHandMiddle1
RightHandMiddle3	RightHandMiddle2
RightHandMiddle4	RightHandMiddle3
RightHandIndex1	RightHand
RightHandIndex2	RightHandIndex1
RightHandIndex3	RightHandIndex2
RightHandIndex4	RightHandIndex3
RightHandThumb1	RightHand
RightHandThumb2	RightHandThumb1
RightHandThumb3	RightHandThumb2
RightHandThumb4	RightHandThumb3
LeftUpLeg	Hips
LeftLeg	LeftUpLeg
LeftFoot	LeftLeg
LeftToeBase	LeftFoot
RightUpLeg	Hips
RightLeg	RightUpLeg
RightFoot	RightLeg
RightToeBase	RightFoot
[BasePosition]
Hips	0	0	0	0	0	0	1
Spine	0	0	0	0	0	0	1
Spine1	0	0	0	0	0	0	1
Spine2	0	0	0	0	0	0	1
Neck	0	0	0	0	0	0	1
Head	0	0	0	0	0	0	1
LeftEye	0	0	0	0	0	0	1
RightEye	0	0	0	0	0	0	1
LeftShoulder	0	0	0	0	0	0	1
LeftArm	0	0	0	0	0	0	1
LeftForeArm	0	0	0	0	0	0	1
LeftHand	0	0	0	0	0	0	1
LeftHandThumb1	0	0	0	0	0	0	1
LeftHandThumb2	0	0	0	0	0	0	1
LeftHandThumb3	0	0	0	0	0	0	1
LeftHandThumb4	0	0	0	0	0	0	1
LeftHandIndex1	0	0	0	0	0	0	1
LeftHandIndex2	0	0	0	0	0	0	1
LeftHandIndex3	0	0	0	0	0	0	1
LeftHandIndex4	0	0	0	0	0	0	1
LeftHandMiddle1	0	0	0	0	0	0	1
LeftHandMiddle2	0	0	0	0	0	0	1
LeftHandMiddle3	0	0	0	0	0	0	1
LeftHandMiddle4	0	0	0	0	0	0	1
LeftHandRing1	0	0	0	0	0	0	1
LeftHandRing2	0	0	0	0	0	0	1
LeftHandRing3	0	0	0	0	0	0	1
LeftHandRing4	0	0	0	0	0	0	1
LeftHandPinky1	0	0	0	0	0	0	1
LeftHandPinky2	0	0	0	0	0	0	1
LeftHandPinky3	0	0	0	0	0	0	1
LeftHandPinky4	0	0	0	0	0	0	1
RightShoulder	0	0	0	0	0	0	1
RightArm	0	0	0	0	0	0	1
RightForeArm	0	0	0	0	0	0	1
RightHand	0	0	0	0	0	0	1
RightHandPinky1	0	0	0	0	0	0	1
RightHandPinky2	0	0	0	0	0	0	1
RightHandPinky3	0	0	0	0	0	0	1
RightHandPinky4	0	0	0	0	0	0	1
RightHandRing1	0	0	0	0	0	0	1
RightHandRing2	0	0	0	0	0	0	1
RightHandRing3	0	0	0	0	0	0	1
RightHandRing4	0	0	0	0	0	0	1
RightHandMiddle1	0	0	0	0	0	0	1
RightHandMiddle2	0	0	0	0	0	0	1
RightHandMiddle3	0	0	0	0	0	0	1
RightHandMiddle4	0	0	0	0	0	0	1
RightHandIndex1	0	0	0	0	0	0	1
RightHandIndex2	0	0	0	0	0	0	1
RightHandIndex3	0	0	0	0	0	0	1
RightHandIndex4	0	0	0	0	0	0	1
RightHandThumb1	0	0	0	0	0	0	1
RightHandThumb2	0	0	0	0	0	0	1
RightHandThumb3	0	0	0	0	0	0	1
RightHandThumb4	0	0	0	0	0	0	1
LeftUpLeg	0	0	0	0	0	0	1
LeftLeg	0	0	0	0	0	0	1
LeftFoot	0	0	0	0	0	0	1
LeftToeBase	0	0	0	0	0	0	1
RightUpLeg	0	0	0	0	0	0	1
RightLeg	0	0	0	0	0	0	1
RightFoot	0	0	0	0	0	0	1
RightToeBase	0	0	0	0	0	0	1
[Hips]
135	3.166898251	997.0952759	56.54362106	16.09809113	-72.66339874	-26.08653641	1.0
136	-2.045847654	986.1937256	34.37603378	24.49689484	-74.3219223	-33.63976288	1.0
137	-4.910885811	967.0665283	10.89626694	33.3242836	-75.29914856	-41.55082321	1.0
138	-3.400620461	947.0947876	-10.07804012	40.08479691	-75.33886719	-49.25315475	1.0
[Spine]
135	0	101.8159943	1.315000057	2.979459524	-8.301455498	-10.25869083	1.0
136	0	101.8159943	1.315000057	1.352126598	-8.989089966	-10.30032158	1.0
137	0	101.8159943	1.315000057	0.5021530986	-9.323508263	-9.417198181	1.0
138	0	101.8159943	1.315000057	3.511633158	-9.179519653	-7.875501633	1.0
[Spine1]
135	0	100.8349991	-10.00800037	1.520361304	-1.338187456	6.579877853	1.0
136	0	100.8349991	-10.00800037	1.780523419	-1.403427482	7.851798058	1.0
137	0	100.8349991	-10.00800037	1.836181402	-1.415185452	8.417878151	1.0
138	0	100.8349991	-10.00800037	1.432970405	-1.460776091	8.575283051	1.0
[Spine2]
135	0	91	-13.73399925	1.653214335	-1.304591775	6.553598881	1.0
136	0	91	-13.73399925	1.939249277	-1.393486857	7.814293861	1.0
137	0	91	-13.73399925	2.002621412	-1.423286557	8.376400948	1.0
138	0	91	-13.73399925	1.608398676	-1.432948709	8.547140121	1.0
[Neck]
135	0	166.7169952	-25.16200066	0.2774494886	-6.83518362	-8.713391304	1.0
136	0	166.7169952	-25.16200066	0.5363442302	-6.165285587	-9.506677628	1.0
137	0	166.7169952	-25.16200066	0.2380743325	-5.44756031	-10.00481701	1.0
138	0	166.7169952	-25.16200066	-1.040507078	-4.662822723	-10.054039	1.0
[Head]
135	0	96.17900085	16.84999847	-14.79334068	-43.58649445	7.257045746	1.0
136	0	96.17900085	16.84999847	-12.98021603	-41.53193283	5.192363262	1.0
137	0	96.17900085	16.84999847	-12.3074894	-38.49142456	4.054452896	1.0
138	0	96.17900085	16.84999847	-12.00623703	-34.02202225	2.543221235	1.0
[LeftEye]
135	30.6760006	64.09500122	92.83599854	0	0	0	1.0
136	30.6760006	64.09500122	92.83599854	0	0	0	1.0
137	30.6760006	64.09500122	92.83599854	0	0	0	1.0
138	30.6760006	64.09500122	92.83599854	0	0	0	1.0
[RightEye]
135	-30.6760006	64.09500122	92.83499908	0	0	0	1.0
136	-30.6760006	64.09500122	92.83499908	0	0	0	1.0
137	-30.6760006	64.09500122	92.83499908	0	0	0	1.0
138	-30.6760006	64.09500122	92.83499908	0	0	0	1.0
[LeftShoulder]
135	45.70400238	109.4599991	-26.28000069	0.8088780046	-0.9979679585	-10.73113728	1.0
136	45.70400238	109.4599991	-26.28000069	0.706345737	-1.313634157	-7.027593136	1.0
137	45.70400238	109.4599991	-26.28000069	0.5080243349	-1.168236494	-2.861082792	1.0
138	45.70400238	109.4599991	-26.28000069	0.2566612661	0.2147505134	1.022491217	1.0
[LeftArm]
135	105.923996	-5.24600029	-22.32099915	-18.64262009	4.043059349	16.04418945	1.0
136	105.923996	-5.24600029	-22.32099915	-19.79096413	8.075965881	20.70373535	1.0
137	105.923996	-5.24600029	-22.32099915	-23.83059883	11.44660664	22.90988159	1.0
138	105.923996	-5.24600029	-22.32099915	-31.88158226	14.20880604	21.44796944	1.0
[LeftForeArm]
135	278.414978	-0.0009999999311	0	5.781726031e-06	-45.82210922	-0.0001954293111	1.0
136	278.414978	-0.0009999999311	0	6.717776159e-06	-48.18557358	-0.0002045371657	1.0
137	278.414978	-0.0009999999311	0	9.015862815e-06	-50.68776703	-0.0001973180915	1.0
138	278.414978	-0.0009999999311	0	1.698867345e-05	-55.48945618	-0.0002159800933	1.0
[LeftHand]
135	283.2879944	0	0	14.70275688	10.22075272	34.95107651	1.0
136	283.2879944	0	0	15.68597794	8.328597069	36.99320984	1.0
137	283.2879944	0	0	17.57843208	5.575558662	39.53755951	1.0
138	283.2879944	0	0	18.75610352	2.829332113	41.85676956	1.0
[LeftHandThumb1]
135	24.6609993	-15.75	26.8239994	-7.156708717	-0.3399477601	11.40177822	1.0
136	24.6609993	-15.75	26.8239994	-7.185211658	-0.250623107	11.42084694	1.0
137	24.6609993	-15.75	26.8239994	-7.476959229	-0.1815996021	12.31111717	1.0
138	24.6609993	-15.75	26.8239994	-7.751870155	0.03177873045	13.62427711	1.0
[LeftHandThumb2]
135	32.29800034	-18.64699936	18.64699936	1.275710225	-0.1554412544	-1.053603053	1.0
136	32.29800034	-18.64699936	18.64699936	1.298792601	-0.1983053833	-1.0596174	1.0
137	32.29800034	-18.64699936	18.64699936	1.284090281	-0.2136754841	-1.052797198	1.0
138	32.29800034	-18.64699936	18.64699936	1.2574054	-0.2104201019	-1.040999055	1.0
[LeftHandThumb3]
135	26.52600098	-15.31499958	15.31499958	-3.819149017	-3.655572891	3.604664326	1.0
136	26.52600098	-15.31499958	15.31499958	-3.964801788	-3.943014145	3.686333656	1.0
137	26.52600098	-15.31499958	15.31499958	-4.196035862	-4.251237869	3.754134893	1.0
138	26.52600098	-15.31499958	15.31499958	-4.441618443	-4.542733669	3.810662508	1.0
[LeftHandThumb4]
135	19.54599953	-11.28499985	11.28499985	0	0	0	1.0
136	19.54599953	-11.28499985	11.28499985	0	0	0	1.0
137	19.54599953	-11.28499985	11.28499985	0	0	0	1.0
138	19.54599953	-11.28499985	11.28499985	0	0	0	1.0
[LeftHandIndex1]
135	91.09299469	-5.170999527	22.60099792	-0.9644938707	-8.901369095	31.11400986	1.0
136	91.09299469	-5.170999527	22.60099792	-0.9558299184	-8.818756104	30.96379662	1.0
137	91.09299469	-5.170999527	22.60099792	-0.9587805271	-8.725951195	30.99735832	1.0
138	91.09299469	-5.170999527	22.60099792	-0.984797895	-8.636704445	31.39409256	1.0
[LeftHandIndex2]
135	36.76399994	0	0	-5.347267802e-07	-0.0006480909651	0.005422951654	1.0
136	36.76399994	0	0	1.668187451e-06	2.107562295e-06	-5.955996312e-05	1.0
137	36.76399994	0	0	-7.271696177e-06	-2.645113909e-06	-2.617408609e-05	1.0
138	36.76399994	0	0	-3.153699936e-06	-0.0005934139481	0.004981928039	1.0
[LeftHandIndex3]
135	28.83100128	0	0	-0.04026267305	0.7436313033	-6.197950363	1.0
136	28.83100128	0	0	-0.03689879924	0.7120395303	-5.933532715	1.0
137	28.83100128	0	0	-0.03279680386	0.6713144183	-5.593014717	1.0
138	28.83100128	0	0	-0.02867253311	0.6278020144	-5.229450703	1.0
[LeftHandIndex4]
135	23.92700005	0	0	0	0	0	1.0
136	23.92700005	0	0	0	0	0	1.0
137	23.92700005	0	0	0	0	0	1.0
138	23.92700005	0	0	0	0	0	1.0
[LeftHandMiddle1]
135	95.33399963	0	0	-0.4965938628	-1.171478391	21.95072365	1.0
136	95.33399963	0	0	-0.5660064816	-1.854075193	23.4230938	1.0
137	95.33399963	0	0	-0.6490429044	-2.4824543	25.10019302	1.0
138	95.33399963	0	0	-0.8073648214	-2.963663578	27.99720001	1.0
[LeftHandMiddle2]
135	36.98199844	0	0	6.471608685e-06	-6.499998563e-05	5.092281208e-05	1.0
136	36.98199844	0	0	-7.926136277e-06	-3.171168646e-05	2.410843626e-05	1.0
137	36.98199844	0	0	-1.287283703e-05	-5.898217205e-05	3.308903615e-05	1.0
138	36.98199844	0	0	-5.953726031e-06	-7.244781591e-05	-1.911991603e-05	1.0
[LeftHandMiddle3]
135	29.50900078	0	0	-0.03437566012	0.6873071194	-5.726696968	1.0
136	29.50900078	0	0	-0.02827673592	0.6235939264	-5.194470406	1.0
137	29.50900078	0	0	-0.0224851761	0.5557692647	-4.627975464	1.0
138	29.50900078	0	0	-0.0185740646	0.5056383014	-4.209601402	1.0
[LeftHandMiddle4]
135	28.3390007	0	0	0	0	0	1.0
136	28.3390007	0	0	0	0	0	1.0
137	28.3390007	0	0	0	0	0	1.0
138	28.3390007	0	0	0	0	0	1.0
[LeftHandRing1]
135	91.04499817	-0.4390000105	-18.65100098	-0.2367417067	5.51047039	16.83351898	1.0
136	91.04499817	-0.4390000105	-18.65100098	-0.38892892	3.493194103	20.23245811	1.0
137	91.04499817	-0.4390000105	-18.65100098	-0.5789962411	1.630386591	24.08453751	1.0
138	91.04499817	-0.4390000105	-18.65100098	-0.8063808084	0.5383729935	28.21020126	1.0
[LeftHandRing2]
135	31.54000092	0	0	-1.536075956e-06	-7.069846106e-06	-4.736178744e-05	1.0
136	31.54000092	0	0	5.040724318e-06	-6.065173238e-06	4.982000246e-05	1.0
137	31.54000092	0	0	-2.33175092e-06	-4.297943178e-06	6.677156489e-05	1.0
138	31.54000092	0	0	-1.338549964e-06	-8.8599827e-06	7.659380208e-05	1.0
[LeftHandRing3]
135	29.37700081	0	0	-0.0418821983	0.7584340572	-6.321733475	1.0
136	29.37700081	0	0	-0.03417733312	0.6852403283	-5.709502697	1.0
137	29.37700081	0	0	-0.02765235864	0.6161269546	-5.132136822	1.0
138	29.37700081	0	0	-0.02453511022	0.581151247	-4.839992523	1.0
[LeftHandRing4]
135	26.47500038	0	0	0	0	0	1.0
136	26.47500038	0	0	0	0	0	1.0
137	26.47500038	0	0	0	0	0	1.0
138	26.47500038	0	0	0	0	0	1.0
[LeftHandPinky1]
135	80.77799988	-4.887000084	-38.06099701	0.1779345274	18.0050106	15.4614687	1.0
136	80.77799988	-4.887000084	-38.06099701	-0.1800350845	14.38305283	21.48838234	1.0
137	80.77799988	-4.887000084	-38.06099701	-0.6347718239	11.02413654	28.47953224	1.0
138	80.77799988	-4.887000084	-38.06099701	-0.938275218	9.359274864	32.81122589	1.0
[LeftHandPinky2]
135	36	0	0	0.02831952274	-4.036944866	-0.6549761295	1.0
136	36	0	0	0.02452937886	-4.043426037	-0.6013268232	1.0
137	36	0	0	0.02589154989	-4.041079998	-0.6206306219	1.0
138	36	0	0	0.02715872414	-4.038946629	-0.6384773254	1.0
[LeftHandPinky3]
135	21.14200211	0	0	-0.0307397265	0.6501279473	-5.415917873	1.0
136	21.14200211	0	0	-0.02321350574	0.5651810169	-4.706497669	1.0
137	21.14200211	0	0	-0.0176737532	0.4925627112	-4.100670338	1.0
138	21.14200211	0	0	-0.01587989926	0.4677368104	-3.89353776	1.0
[LeftHandPinky4]
135	19.75699997	0	0	0	0	0	1.0
136	19.75699997	0	0	0	0	0	1.0
137	19.75699997	0	0	0	0	0	1.0
138	19.75699997	0	0	0	0	0	1.0
[RightShoulder]
135	-45.70000076	109.4620056	-26.28000069	0.1391675323	-2.977383614	20.05638504	1.0
136	-45.70000076	109.4620056	-26.28000069	0.1112498641	-3.120106459	22.6519413	1.0
137	-45.70000076	109.4620056	-26.28000069	0.1739833504	-2.938430309	24.42796898	1.0
138	-45.70000076	109.4620056	-26.28000069	0.2700797617	-2.64336729	25.15810013	1.0
[RightArm]
135	-105.9280014	-5.248000145	-22.32099915	-42.05972672	5.098639965	26.03800774	1.0
136	-105.9280014	-5.248000145	-22.32099915	-34.2773819	-2.323756695	30.11110687	1.0
137	-105.9280014	-5.248000145	-22.32099915	-27.9807148	-10.52595615	35.16444778	1.0
138	-105.9280014	-5.248000145	-22.32099915	-24.39724731	-16.5749321	40.92580032	1.0
[RightForeArm]
135	-278.414978	0	0	-4.136207644e-05	74.88549805	-1.904752753e-05	1.0
136	-278.414978	0	0	-1.077285197e-05	71.19538879	-3.349957842e-05	1.0
137	-278.414978	0	0	9.213893463e-06	68.96805573	8.151154361e-06	1.0
138	-278.414978	0	0	1.226236463e-06	66.35449982	8.643537512e-06	1.0
[RightHand]
135	-283.2879944	0	0.0009999999311	7.387035847	13.8694191	-27.65396881	1.0
136	-283.2879944	0	0.0009999999311	6.846478462	13.34044552	-27.664505	1.0
137	-283.2879944	0	0.0009999999311	5.699858665	11.67999268	-27.27637482	1.0
138	-283.2879944	0	0.0009999999311	4.629695892	9.381243706	-26.17092514	1.0
[RightHandPinky1]
135	-80.76699829	-4.885000229	-38.06000137	-0.1156779975	-14.45620155	-19.59941483	1.0
136	-80.76699829	-4.885000229	-38.06000137	-0.2455238998	-14.01011467	-22.37600327	1.0
137	-80.76699829	-4.885000229	-38.06000137	-0.4620918334	-13.42479134	-26.39988327	1.0
138	-80.76699829	-4.885000229	-38.06000137	-0.6241390705	-13.11301708	-29.17738152	1.0
[RightHandPinky2]
135	-36	0	0.0009999999311	-0.2241307199	-1.751384854	14.60182953	1.0
136	-36	0	0.0009999999311	-0.1745068431	-1.548055649	12.87605095	1.0
137	-36	0	0.0009999999311	-0.09631621838	-1.149223447	9.526315689	1.0
138	-36	0	0.0009999999311	-0.04145815223	-0.7529290318	6.228330135	1.0
[RightHandPinky3]
135	-21.14200211	0	0	-0.009629425593	-0.3645526767	3.004586458	1.0
136	-21.14200211	0	0	-0.003372078063	-0.2165982127	1.784538031	1.0
137	-21.14200211	0	0	-1.794521449e-05	0.01019183733	-0.08381135762	1.0
138	-21.14200211	0	0	-0.005419687834	0.2659195364	-2.191192389	1.0
[RightHandPinky4]
135	-19.75699997	0	0	0	0	0	1.0
136	-19.75699997	0	0	0	0	0	1.0
137	-19.75699997	0	0	0	0	0	1.0
138	-19.75699997	0	0	0	0	0	1.0
[RightHandRing1]
135	-91.03599548	-0.4390000105	-18.65100098	-0.4182052016	-5.743659496	-21.54210281	1.0
136	-91.03599548	-0.4390000105	-18.65100098	-0.5066257119	-5.339220524	-23.36931038	1.0
137	-91.03599548	-0.4390000105	-18.65100098	-0.6366696954	-4.817757607	-25.83550262	1.0
138	-91.03599548	-0.4390000105	-18.65100098	-0.7345398664	-4.363292217	-27.55550194	1.0
[RightHandRing2]
135	-31.54000092	0	0	-3.066582394e-06	-2.405311534e-06	3.062628821e-05	1.0
136	-31.54000092	0	0	-1.396853008e-06	-3.91698677e-06	1.233007788e-05	1.0
137	-31.54000092	0	0	-3.863330676e-06	3.169816125e-07	1.844272629e-05	1.0
138	-31.54000092	0	0	4.344100034e-06	9.429681995e-07	1.964455623e-05	1.0
[RightHandRing3]
135	-29.37700081	0	0	-2.19010973	-0.1478870809	1.218126893	1.0
136	-29.37700081	0	0	-2.064739466	-0.03776443005	0.3103004098	1.0
137	-29.37700081	0	0	-1.84883821	0.1540587395	-1.270541072	1.0
138	-29.37700081	0	0	-1.588984251	0.3747754991	-3.090539932	1.0
[RightHandRing4]
135	-26.47500038	0	0	0	0	0	1.0
136	-26.47500038	0	0	0	0	0	1.0
137	-26.47500038	0	0	0	0	0	1.0
138	-26.47500038	0	0	0	0	0	1.0
[RightHandMiddle1]
135	-95.32500458	0	0	-0.8187603354	1.655178905	-28.13621902	1.0
136	-95.32500458	0	0	-0.9064150453	2.12940073	-29.62174225	1.0
137	-95.32500458	0	0	-1.011411548	2.7266078	-31.31523323	1.0
138	-95.32500458	0	0	-1.089782476	3.442782402	-32.53179169	1.0
[RightHandMiddle2]
135	-36.98199844	0	0	9.296418568e-08	-1.881152457e-06	1.556565621e-05	1.0
136	-36.98199844	0	0	-2.898893626e-06	-4.511539828e-06	1.230252747e-05	1.0
137	-36.98199844	0	0	7.317000836e-07	-2.925182343e-06	2.922367639e-05	1.0
138	-36.98199844	0	0	7.125807997e-07	-8.04124511e-07	1.216853161e-05	1.0
[RightHandMiddle3]
135	-29.50900078	0	0	-1.147686362	0.07453109324	-0.6306682229	1.0
136	-29.50900078	0	0	-0.9791552424	0.1386835724	-1.159709215	1.0
137	-29.50900078	0	0	-0.7247163057	0.2729640305	-2.266984463	1.0
138	-29.50900078	0	0	-0.4487062991	0.4430238008	-3.669925451	1.0
[RightHandMiddle4]
135	-28.3390007	0	0.0009999999311	0	0	0	1.0
136	-28.3390007	0	0.0009999999311	0	0	0	1.0
137	-28.3390007	0	0.0009999999311	0	0	0	1.0
138	-28.3390007	0	0.0009999999311	0	0	0	1.0
[RightHandIndex1]
135	-91.08300018	-5.167999744	22.60099792	-1.172616959	8.456472397	-34.04905319	1.0
136	-91.08300018	-5.167999744	22.60099792	-1.258600116	9.090881348	-35.35224152	1.0
137	-91.08300018	-5.167999744	22.60099792	-1.327911496	9.881189346	-36.41456604	1.0
138	-91.08300018	-5.167999744	22.60099792	-1.376362801	11.00639534	-37.23445892	1.0
[RightHandIndex2]
135	-36.76399994	0	0	2.581806712e-06	0.0004470024433	-0.003692260711	1.0
136	-36.76399994	0	0	3.068379101e-06	-0.001514778822	0.01241930015	1.0
137	-36.76399994	0	0	-0.0001194791184	-0.03755363822	0.3093682528	1.0
138	-36.76399994	0	0	-0.0001511140727	-0.04740365967	0.3906005323	1.0
[RightHandIndex3]
135	-28.83100128	0	0	-0.0002508405887	0.06362167746	-0.5240559578	1.0
136	-28.83100128	0	0	-0.0008261477342	0.1073116511	-0.8839889765	1.0
137	-28.83100128	0	0	-0.003528577276	0.223786667	-1.843681693	1.0
138	-28.83100128	0	0	-0.01087010372	0.3857560456	-3.179459572	1.0
[RightHandIndex4]
135	-23.92700005	0	0	0	0	0	1.0
136	-23.92700005	0	0	0	0	0	1.0
137	-23.92700005	0	0	0	0	0	1.0
138	-23.92700005	0	0	0	0	0	1.0
[RightHandThumb1]
135	-24.64799881	-15.72700024	26.82600021	-2.701532602	-11.36457825	-20.06241226	1.0
136	-24.64799881	-15.72700024	26.82600021	-3.585965157	-10.84467316	-19.81799507	1.0
137	-24.64799881	-15.72700024	26.82600021	-4.081383705	-10.7304697	-19.47130013	1.0
138	-24.64799881	-15.72700024	26.82600021	-3.988129139	-10.74578953	-18.77476692	1.0
[RightHandThumb2]
135	-32.29800034	-18.64699936	18.64699936	2.046695232	0.3287760913	1.691348076	1.0
136	-32.29800034	-18.64699936	18.64699936	2.047457457	0.3393535316	1.656108499	1.0
137	-32.29800034	-18.64699936	18.64699936	2.060370684	0.3510136902	1.632767916	1.0
138	-32.29800034	-18.64699936	18.64699936	2.058238983	0.3509063125	1.656855106	1.0
[RightHandThumb3]
135	-26.52600098	-15.31399918	15.31399918	-4.634279728	5.296693802	-3.219626904	1.0
136	-26.52600098	-15.31399918	15.31399918	-4.594546795	5.293802261	-3.182482243	1.0
137	-26.52600098	-15.31399918	15.31399918	-4.60508728	5.356585979	-3.174957037	1.0
138	-26.52600098	-15.31399918	15.31399918	-4.624756336	5.363132	-3.207850933	1.0
[RightHandThumb4]
135	-19.54599953	-11.28499985	11.28499985	0	0	0	1.0
136	-19.54599953	-11.28499985	11.28499985	0	0	0	1.0
137	-19.54599953	-11.28499985	11.28499985	0	0	0	1.0
138	-19.54599953	-11.28499985	11.28499985	0	0	0	1.0
[LeftUpLeg]
135	82.07800293	-67.51699829	-15.99599934	-2.282845736	20.47691345	14.00131989	1.0
136	82.07800293	-67.51699829	-15.99599934	-3.769842148	17.55707359	17.08846664	1.0
137	82.07800293	-67.51699829	-15.99599934	-5.913848877	13.18762589	20.28526497	1.0
138	82.07800293	-67.51699829	-15.99599934	-7.068091869	9.42969799	22.74216461	1.0
[LeftLeg]
135	0	-443.7049866	2.845999956	35.36262512	7.904576778	-6.184258461	1.0
136	0	-443.7049866	2.845999956	39.8771286	8.826610565	-5.071968555	1.0
137	0	-443.7049866	2.845999956	45.05827713	8.618437767	-5.33416605	1.0
138	0	-443.7049866	2.845999956	50.44280243	3.88044548	-7.400398254	1.0
[LeftFoot]
135	0	-444.2789917	-29.8219986	-23.78091431	25.76934814	-6.414150238	1.0
136	0	-444.2789917	-29.8219986	-24.7026825	15.64517975	-6.102475166	1.0
137	0	-444.2789917	-29.8219986	-27.72549248	7.143530846	-5.218099594	1.0
138	0	-444.2789917	-29.8219986	-31.38387299	3.548172951	-5.79272747	1.0
[LeftToeBase]
135	0	-87.28699493	107.1060028	-3.880537987	5.043837518e-06	6.618254247e-07	1.0
136	0	-87.28699493	107.1060028	-4.240962029	1.986249117e-05	-1.352795834e-06	1.0
137	0	-87.28699493	107.1060028	-4.035971165	6.128162568e-06	1.612506821e-06	1.0
138	0	-87.28699493	107.1060028	-3.964719057	-2.972405855e-05	3.292411066e-06	1.0
[RightUpLeg]
135	-82.07800293	-67.51699829	-15.99599934	-1.851121068	1.713773727	-10.6494894	1.0
136	-82.07800293	-67.51699829	-15.99599934	1.381237984	2.350458145	-8.644584656	1.0
137	-82.07800293	-67.51699829	-15.99599934	1.345827579	4.424705982	-6.564875603	1.0
138	-82.07800293	-67.51699829	-15.99599934	-1.533941031	6.14622736	-4.456104755	1.0
[RightLeg]
135	0	-443.7049866	2.861999989	29.64339638	-3.887859344	-5.921479702	1.0
136	0	-443.7049866	2.861999989	23.19805717	-1.257383108	-5.05105114	1.0
137	0	-443.7049866	2.861999989	22.68099785	-5.512963772	-5.243607521	1.0
138	0	-443.7049866	2.861999989	30.14512444	-6.820265293	-5.199738026	1.0
[RightFoot]
135	0	-444.2770081	-29.83799934	2.950550318	-0.04662525654	19.46677589	1.0
136	0	-444.2770081	-29.83799934	1.194466352	-0.7859190702	26.25226593	1.0
137	0	-444.2770081	-29.83799934	-10.11203194	3.892480373	25.17613602	1.0
138	0	-444.2770081	-29.83799934	-18.99354362	6.611023426	21.30905533	1.0
[RightToeBase]
135	0	-87.28699493	107.1060028	-2.275703669	-0.1610078514	2.636396646	1.0
136	0	-87.28699493	107.1060028	-10.34850121	-0.3564439118	-2.768307924	1.0
137	0	-87.28699493	107.1060028	-5.061887741	-0.06231605262	-0.4776514471	1.0
138	0	-87.28699493	107.1060028	2.370281696	0.06264266372	-0.3218063116	1.0
[EndOfFile]
